<?xml version="1.0" standalone="no"?>
<!DOCTYPE svg PUBLIC "-//W3C//DTD SVG 20010904//EN"
 "http://www.w3.org/TR/2001/REC-SVG-20010904/DTD/svg10.dtd">
<svg version="1.0" xmlns="http://www.w3.org/2000/svg"
 width="300.000000pt" height="300.000000pt" viewBox="0 0 300.000000 300.000000"
 preserveAspectRatio="xMidYMid meet">
<metadata>
Created by potrace 1.11, written by Peter Selinger 2001-2013
</metadata>
<g transform="translate(0.000000,300.000000) scale(0.100000,-0.100000)"
fill="#000000" stroke="none">
<path d="M1239 2980 c-532 -96 -978 -475 -1157 -981 -62 -176 -77 -272 -77
-499 0 -227 15 -323 77 -499 176 -497 609 -872 1134 -978 137 -28 455 -25 584
5 154 36 258 72 377 133 411 208 692 573 795 1030 20 90 23 131 23 309 0 178
-3 219 -23 309 -82 363 -279 672 -568 890 -177 132 -359 216 -579 267 -163 37
-425 44 -586 14z m894 -865 c86 -18 152 -54 227 -124 49 -46 60 -62 60 -88 0
-38 -22 -63 -56 -63 -31 0 -55 13 -118 62 -99 79 -185 109 -234 84 -71 -37
-45 -108 112 -306 126 -159 164 -230 179 -334 9 -63 8 -84 -6 -136 -34 -119
-113 -212 -232 -271 -211 -103 -379 -71 -457 89 -30 60 -33 75 -33 152 1 138
49 246 154 343 50 47 159 107 193 107 32 0 28 19 -16 78 -93 123 -122 214 -91
288 20 50 41 71 90 97 76 39 126 44 228 22z m-736 -430 c112 -21 147 -68 95
-127 -19 -22 -42 -22 -148 -3 -45 9 -113 15 -151 13 l-68 -3 40 -20 c103 -51
151 -146 143 -285 -14 -236 -237 -420 -460 -380 -170 31 -268 152 -268 328 0
170 71 301 213 393 59 38 147 72 228 88 73 15 290 12 376 -4z"/>
<path d="M1929 1492 c-104 -54 -179 -187 -179 -317 0 -107 37 -155 120 -155
59 1 125 31 178 83 74 72 96 134 80 232 -10 67 -48 147 -80 169 -32 23 -58 20
-119 -12z"/>
<path d="M864 1478 c-78 -61 -106 -119 -112 -230 -4 -74 -1 -93 18 -132 71
-148 300 -112 356 56 23 69 17 186 -12 225 -32 43 -79 70 -134 78 -28 4 -52
11 -56 16 -9 15 -30 10 -60 -13z"/>
</g>
</svg>
